# xmcd
# 
# Track frame offsets:
#     150
#     39975
#     79804
#     124052
#     155339
#     175647
#     196446
#     222841
# 
# Disc length: 3394
# 
# Revision: 2
# Processed by: cddbd v1.5.2PL0 Copyright (c) Steve Scherf et al.
# Submitted via: BonkEnc v1.0.8
# 
DISCID=610d4008
DTITLE=Joe Haider - Grandfather's Garden
DYEAR=2000
DGENRE=Jazz
TTITLE0=Grandfather's Garden
TTITLE1=Bilein
TTITLE2=Blues for Alf
TTITLE3=You and the night and the music
TTITLE4=Sunday Child
TTITLE5=Bright
TTITLE6=You
TTITLE7=T(h)ree
EXTD=YEAR: 2000
EXTT0=
EXTT1=
EXTT2=
EXTT3=
EXTT4=
EXTT5=
EXTT6=
EXTT7=
PLAYORDER=
